<?xml version="1.0" encoding="UTF-8" standalone="no"?>
<!-- Created with Inkscape (http://www.inkscape.org/) -->
<svg
   xmlns:dc="http://purl.org/dc/elements/1.1/"
   xmlns:cc="http://creativecommons.org/ns#"
   xmlns:rdf="http://www.w3.org/1999/02/22-rdf-syntax-ns#"
   xmlns:svg="http://www.w3.org/2000/svg"
   xmlns="http://www.w3.org/2000/svg"
   xmlns:sodipodi="http://sodipodi.sourceforge.net/DTD/sodipodi-0.dtd"
   xmlns:inkscape="http://www.inkscape.org/namespaces/inkscape"
   width="609.44879"
   height="609.44879"
   id="svg2"
   sodipodi:version="0.32"
   inkscape:version="0.46"
   sodipodi:docname="figures.svg"
   inkscape:output_extension="org.inkscape.output.svg.inkscape"
   inkscape:export-filename="/home/beni/Working/huppoid/figures.png"
   inkscape:export-xdpi="300.07443"
   inkscape:export-ydpi="300.07443"
   version="1.0">
  <defs
     id="defs4">
    <inkscape:perspective
       sodipodi:type="inkscape:persp3d"
       inkscape:vp_x="0 : 526.18109 : 1"
       inkscape:vp_y="0 : 1000 : 0"
       inkscape:vp_z="744.09448 : 526.18109 : 1"
       inkscape:persp3d-origin="372.04724 : 350.78739 : 1"
       id="perspective10" />
    <inkscape:perspective
       id="perspective2450"
       inkscape:persp3d-origin="372.04724 : 350.78739 : 1"
       inkscape:vp_z="744.09448 : 526.18109 : 1"
       inkscape:vp_y="0 : 1000 : 0"
       inkscape:vp_x="0 : 526.18109 : 1"
       sodipodi:type="inkscape:persp3d" />
  </defs>
  <sodipodi:namedview
     id="base"
     pagecolor="#ffffff"
     bordercolor="#666666"
     borderopacity="1.0"
     gridtolerance="10000"
     guidetolerance="10"
     objecttolerance="10"
     inkscape:pageopacity="0.0"
     inkscape:pageshadow="2"
     inkscape:zoom="0.64"
     inkscape:cx="273.49349"
     inkscape:cy="389.05985"
     inkscape:document-units="px"
     inkscape:current-layer="layer1"
     showgrid="false"
     inkscape:window-width="1440"
     inkscape:window-height="807"
     inkscape:window-x="0"
     inkscape:window-y="33"
     width="49px"
     showborder="true"
     inkscape:showpageshadow="true"
     borderlayer="false"
     units="mm">
    <inkscape:grid
       type="xygrid"
       id="grid2516"
       visible="true"
       enabled="true" />
  </sodipodi:namedview>
  <metadata
     id="metadata7">
    <rdf:RDF>
      <cc:Work
         rdf:about="">
        <dc:format>image/svg+xml</dc:format>
        <dc:type
           rdf:resource="http://purl.org/dc/dcmitype/StillImage" />
      </cc:Work>
    </rdf:RDF>
  </metadata>
  <g
     inkscape:groupmode="layer"
     id="layer3"
     inkscape:label="white halo"
     transform="translate(-68.978004,-47.315233)">
    <path
       style="fill:#ffffff;display:inline"
       d="M 282.09375,47.34375 C 262.70423,47.25308 243.71193,53.731255 228.53125,65.625 C 210.52711,78.952037 196.71807,99.063681 194.6875,121.84375 C 192.32332,143.66264 192.43939,166.90258 201.5,187.21875 C 211.33538,206.49325 226.28082,224.46899 247.4375,231.59375 C 271.94599,240.4509 301.97215,240.05616 323.34375,223.8125 C 350.05982,204.97533 361.01819,172.07686 368.23277,141.42692 C 371.94202,125.93716 376.59488,108.97466 370.28125,93.59375 C 366.67979,83.76547 362.3874,71.242976 351.375,67.71875 C 342.057,65.923874 335.93781,57.324518 326.84375,54.71875 C 312.74263,49.125666 297.30243,47.040983 282.09375,47.34375 z M 284.1875,58.5625 C 301.07388,59.072403 319.81791,59.996061 333.1875,71.5 C 337.46905,76.645724 343.77854,79.932059 350.34375,80.5625 C 358.03065,85.572101 358.32559,96.2987 359.42164,104.46571 C 360.91289,138.33366 351.93749,173.44791 331.03125,200.375 C 318.73873,216.52723 299.24916,227.613 278.53125,226.28125 C 243.81143,225.6776 212.02246,198.17219 206.78125,163.90625 C 201.7688,132.73941 208.49668,96.686526 233.5625,75.65625 C 247.52154,63.801816 266.08814,58.459461 284.1875,58.5625 z M 529.25,102.9375 C 510.63976,103.32071 491.49221,111.11914 479.67458,125.7012 C 464.05453,147.81756 459.65962,176.28314 461.4375,202.9375 C 463.39854,222.52068 469.97769,242.66516 483.55086,257.23836 C 497.91467,272.07903 520.03618,273.72511 539.5,274.625 C 542.38365,275.35187 547.52349,275.14541 549,277.90625 C 543.25386,284.61789 533.7181,286.40099 525.65625,289.40625 C 494.9184,298.22443 462.56791,301.23894 430.90625,305.6875 C 421.44223,306.2283 411.24081,308.82759 402.0625,306.3125 C 394.32182,300.38153 383.9699,306.17174 375.3125,303.65625 C 346.64324,298.90651 318.31975,290.99781 291.76621,279.35662 C 269.48305,268.51948 251.93894,250.83702 232.53125,236.125 C 227.45532,233.2224 221.76011,227.3326 215.4375,229.375 C 211.06773,232.61371 216.15054,238.05616 214.46875,242.28125 C 210.32176,283.65968 199.49364,324.35833 198.53125,366.09375 C 192.93198,420.19903 178.07798,472.95528 163.10577,525.09195 C 152.28704,563.84344 137.00839,601.38704 127.8125,640.5 C 126.53562,644.79986 125.98542,651.83372 131.78125,652.71875 C 136.88308,651.1833 136.87722,643.99276 139.125,640.03125 C 162.81462,567.92205 186.90059,495.54979 202.05569,421.16494 C 203.051,418.68319 203.99225,407.72167 205.36635,414.71213 C 225.17295,488.75457 237.22492,564.93675 261.0625,637.84375 C 263.58122,642.79129 264.00307,650.14324 269.25,653.03125 C 274.82105,653.79876 275.00386,646.98913 273.625,643.28125 C 265.50638,611.41769 254.53199,580.16788 248.87038,547.67448 C 241.6606,518.28814 233.46841,489.1581 228.08499,459.38728 C 221.56468,424.51713 208.287,390.17796 210.6875,354.1875 C 214.07924,321.12549 219.25429,287.83835 227.53125,255.71875 C 228.01544,250.59628 232.22835,256.75004 234.34375,257.6875 C 254.18951,272.85905 269.60761,293.55289 291.25,306.46875 C 316.014,318.84614 343.78825,324.23311 368.74755,336.44447 C 376.28883,339.13518 382.20582,344.42349 388.78125,348.71875 C 397.31983,353.44879 406.2676,346.93898 414.98956,346.15497 C 454.30311,337.90523 494.90541,331.04273 531.4375,313.75 C 537.99937,311.13068 542.68825,305.40707 549.03125,302.65625 C 553.10579,332.02344 554.97014,361.96714 556.09375,391.6875 C 557.07246,412.16754 545.26791,429.87855 540.26947,449.13734 C 527.93445,489.6231 518.38648,530.93095 506.375,571.53125 C 500.08867,595.5364 491.48276,619.08238 485.28482,643.07032 C 484.09864,647.01784 482.43325,655.60522 488.9375,655.40625 C 495.16745,652.55759 496.2092,644.36891 498.96335,638.77773 C 516.41766,586.76082 527.79482,532.68062 543.72529,480.2259 C 548.05696,466.95826 550.92285,452.72573 557.28125,440.21875 C 563.54006,459.35986 563.63052,480.31611 569.57149,499.7154 C 582.64679,546.85563 598.7093,593.3051 618.51137,638.02672 C 622.1229,644.26339 624.09754,652.79429 630.6875,656.59375 C 636.30489,657.45352 637.17461,650.56297 635.25,646.78125 C 628.81754,629.81408 619.12428,613.9691 613.21875,596.65625 C 594.32308,546.6675 579.30545,495.04086 570.19541,442.32356 C 568.15334,429.44535 566.59837,416.16105 569.24214,403.2537 C 570.66982,380.70122 565.91588,358.35701 565.79174,335.81423 C 564.86425,314.9829 564.82351,294.12625 564.40625,273.28125 C 570.96339,273.77669 579.28671,278.72747 585.34375,274.1875 C 586.28344,272.43997 586.22479,270.41288 589.0625,271.25 C 593.50657,270.84005 599.14174,275.20827 603.125,271.84375 C 604.58696,267.35451 598.1177,265.06224 597.84375,260.625 C 597.07875,258.35324 596.8368,255.90707 597.03125,253.5 C 601.09813,255.88404 604.45228,262.63315 609.78125,261.375 C 613.06166,257.85831 608.64487,252.76354 607.68285,249.08832 C 601.96625,238.3251 609.79784,226.69083 613.1311,216.41922 C 620.34363,199.90234 627.36595,181.60361 622.125,163.53125 C 617.86762,149.34634 613.51958,134.61056 605.0625,122.34375 C 597.69976,113.38515 586.45027,108.13339 575.34375,105.78125 C 559.98206,107.52655 544.70594,102.13756 529.25,102.9375 z M 550.15625,116.09375 C 556.01388,116.51942 563.97452,116.14279 567.875,121.15625 C 567.76802,123.5975 563.41685,120.69064 561.9375,120.71875 C 558.22197,119.55337 551.83524,117.06749 550.15625,116.09375 z M 516.21875,116.5 C 537.46489,122.83645 558.11759,131.752 578.53125,140.25 C 581.17091,141.29954 582.86968,142.35966 578.90625,141.1875 C 562.35706,136.32207 545.53865,131.21124 530.375,123.09375 C 526.35264,118.72395 519.89979,119.98966 515.0625,117.78125 C 513.91153,116.80082 515.24278,116.47153 516.21875,116.5 z M 503.46875,120.84375 C 505.31823,120.72788 506.53614,123.19551 503.75,122.59375 C 500.73332,123.07567 500.45619,121.82277 503.15625,120.875 C 503.26247,120.88825 503.36351,120.84062 503.46875,120.84375 z M 590.09375,124.96875 C 594.14558,128.31394 599.05502,132.76132 599.59375,138.03125 C 595.00571,135.52122 590.63044,130.1648 590.09375,124.96875 z M 515.3125,135.53125 C 518.55489,138.30342 521.78087,142.883 522.78125,146.3125 C 519.78677,143.22467 516.97048,139.18065 515.3125,135.53125 z M 487.84375,136.96875 C 494.75574,139.25594 496.94715,147.98739 502.28125,152.5625 C 518.78581,169.81816 544.41565,171.17064 567.05807,171.75804 C 573.7252,172.6625 581.67075,172.19311 587.3125,175.78125 C 589.92115,188.21241 586.5228,201.10257 584.50922,213.4153 C 581.25395,226.03334 579.33444,240.87241 568.90625,249.65625 C 555.51922,257.55995 539.366,261.06013 523.78125,261.375 C 507.22762,261.59609 489.07151,253.08938 483.5,236.46875 C 473.3091,208.86333 473.70661,177.59998 481.03125,149.28125 C 482.65583,145.36567 483.35658,138.50489 487.84375,136.96875 z M 291.96875,292.625 C 313.69644,302.37846 336.85794,308.11699 359.96512,313.32253 C 370.2178,315.73631 380.27394,319.03809 389.625,323.8125 C 402.07885,326.58572 414.09113,319.64114 426.35648,318.45578 C 455.76389,312.58312 486.26759,312.73291 515.3125,305.46875 C 518.4748,304.43534 521.76421,302.67288 524.9375,302.40625 C 509.93785,310.95837 492.68836,314.84714 476.34375,319.78125 C 453.64166,325.5514 430.79991,331.90233 407.375,333.40625 C 397.56574,333.71195 389.51292,327.22414 380.18859,325.09842 C 351.02075,314.427 320.36453,307.1358 292.40625,293.46875 C 292.0309,293.29841 290.29718,291.72251 291.96875,292.625 z"
       id="path2486" />
    <g
       style="fill:#ffffff;display:inline"
       transform="matrix(0.9999742,-7.1847983e-3,7.3166896e-3,1.0183307,51.73585,56.755401)"
       id="g2488">
      <g
         id="g2490"
         style="fill:#ffffff">
        <g
           transform="translate(-150.27314,1.2403006)"
           id="g2492"
           style="fill:#ffffff">
          <path
             style="fill:#ffffff"
             d="M 652.59375,219.59375 C 644.82869,222.56465 640.33667,230.74358 636.03125,237.4375 C 630.98119,247.19415 623.11037,255.982 621.84375,267.21875 C 622.97591,281.65149 631.87058,294.24643 634.46875,308.28125 C 636.47974,313.88675 635.65269,319.48746 632.96875,324.6875 C 608.30544,393.51295 589.3793,464.72199 575.75,536.65625 C 575.06583,545.07521 571.62923,554.49209 575.125,562.5625 C 580.99093,567.59756 587.42655,558.05566 593.78125,561 C 603.63671,561.31118 611.5969,553.60002 621.1875,553.28125 C 623.74627,555.55205 626.52065,559.60163 630.59375,557.65625 C 634.05487,556.45576 638.50319,550.43196 641.5,555.28125 C 647.03566,559.58096 652.99751,553.30299 658.92776,553.7045 C 675.063,552.2678 692.11136,551.45819 707.8125,556.1875 C 712.35337,558.11471 717.44066,562.62703 722.53125,560.8125 C 726.45916,555.69995 724.09305,548.18377 724.37009,542.18977 C 720.21085,497.39281 710.95705,453.09875 700.84938,409.31206 C 692.68113,376.46987 679.57395,345.06366 669.35496,312.93756 C 669.52741,291.30126 670.62382,269.16284 666.59375,247.96875 C 665.35197,239.03416 663.35529,229.7661 658.59375,222.0625 C 656.84326,220.61496 654.92757,219.67267 652.59375,219.59375 z M 651.5625,236.25 C 656.80978,238.36274 657.79145,246.07255 657.90625,251.25 C 657.91319,255.16962 660.08447,262.13278 654.78125,263.1875 C 649.10125,265.39399 640.89322,266.44415 636.4375,261.5 C 636.23439,253.86474 641.34186,246.5796 645.42904,240.29715 C 647.15928,238.47539 648.80293,235.98037 651.5625,236.25 z M 633.28125,271.34375 C 638.97601,273.54508 644.85194,276.2668 651.09375,274.25 C 654.01696,274.44527 657.68667,271.61557 660.0625,273.28125 C 661.80318,289.29782 657.12801,306.05096 662.03125,321.8125 C 668.79086,343.86675 678.23429,365.10425 684.79303,387.19984 C 696.7826,421.68983 700.25146,458.28476 708.34529,493.82572 C 711.85106,511.56097 714.84264,529.44868 716.78125,547.375 C 695.76392,541.76071 673.32025,540.91299 652.125,545.6875 C 647.64336,546.60348 643.65185,544.90566 639.78125,543.125 C 634.99398,541.58771 632.00201,546.39238 628.09375,547.5625 C 625.73185,544.83398 621.52782,539.85133 617.8125,543.78125 C 614.34101,549.12028 607.41511,542.9228 602.875,546.6875 C 600.75018,549.65331 597.02861,550.34702 593.71875,549 C 589.83749,548.29051 585.55885,551.14718 583.71875,553.34375 C 584.1769,531.44611 590.31952,510.02599 594.72771,488.67547 C 608.38662,429.4447 626.76637,371.56606 646.03125,313.9375 C 641.98404,299.72564 636.13808,285.69864 633.28125,271.34375 z"
             id="path2494" />
        </g>
      </g>
    </g>
    <path
       style="fill:#ffffff;display:inline"
       d="M 206.28125,204.21875 C 198.73058,206.23829 198.31716,216.04495 196.46875,222.25 C 194.92283,226.27978 195.50857,232.9816 201.125,232.65625 C 218.63096,231.55094 235.83989,238.594 248.87801,250.0475 C 252.43386,253.13853 259.32352,255.54805 262.0625,250.15625 C 265.60754,243.06338 266.21266,234.75867 268.46875,227.125 C 252.02082,223.21367 232.36943,224.53693 219.6875,211.90625 C 215.92013,208.58166 211.73833,203.85517 206.28125,204.21875 z"
       id="path2500" />
  </g>
  <g
     inkscape:label="Layer 1"
     inkscape:groupmode="layer"
     id="layer1"
     style="display:inline"
     transform="translate(-68.978004,-47.315233)">
    <path
       style="fill:#000000"
       d="M 486.40466,652.0739 C 485.33081,650.33639 488.18163,637.70664 492.73982,624.00781 C 500.934,599.38158 519.68245,532.87047 534.08287,477.34108 C 538.16913,461.58394 545.56209,438.41241 550.51159,425.84881 C 559.33061,403.46307 559.44106,402.00514 556.03035,353.00341 C 554.11614,325.50205 551.63257,302.08349 550.51123,300.96217 C 549.38993,299.84085 545.64242,301.39378 542.18347,304.41311 C 528.13544,316.67571 488.38465,329.66058 430.25,340.97696 C 417.44732,343.46911 403.60904,346.59122 399.49827,347.91499 C 394.32987,349.57934 389.29539,347.81879 383.17877,342.20809 C 378.31382,337.74552 355.087,327.67454 331.56362,319.82813 C 289.38946,305.76061 288.38164,305.16702 259.19648,277.20524 C 242.91794,261.60906 228.64732,249.80036 227.484,250.96368 C 222.83061,255.61707 208.37797,339.2054 208.30037,361.91422 C 208.25481,375.24552 211.2958,397.80686 215.05812,412.05057 C 218.82045,426.29427 224.58231,451.64619 227.86227,468.38816 C 231.14222,485.13012 236.77145,509.30301 240.37167,522.10569 C 243.97189,534.90837 247.97958,551.82939 249.27767,559.70796 C 250.57575,567.58653 256.37198,590.0266 262.15819,609.57473 C 273.6441,648.37881 274.1236,651.02777 269.66188,651.02777 C 265.59042,651.02777 250.21965,599.01809 236.85249,540.01153 C 209.24544,418.1459 205.29797,402.46962 203.48647,407.50829 C 202.42429,410.46275 198.83523,425.77225 195.51078,441.52939 C 188.04886,476.8973 173.99963,526.32875 152.76207,591.93848 C 131.85612,656.52375 133.37485,652.82211 129.40936,648.85661 C 127.30503,646.75228 133.45384,623.34 145.79076,586.48261 C 179.06731,487.06664 200.8201,395.41246 201.18937,353.06356 C 201.26317,344.60013 205.10317,315.96254 209.72271,289.42447 C 214.34224,262.88642 217.39505,239.27941 216.50672,236.96447 C 211.8751,224.89464 224.94493,230.8922 248.80752,251.78684 C 265.44865,266.35821 283.70536,278.53223 297.04439,283.95236 C 328.14272,296.58875 375.88346,308.26065 387.20735,305.99587 C 392.57954,304.92144 398.61417,305.68155 400.61763,307.68501 C 404.19568,311.26306 426.08604,309.22722 489.10869,299.45522 C 543.7516,290.98254 571.56643,273.82193 533.32026,272.17847 C 495.19603,270.54025 479.14079,258.85523 467.70426,224.42308 C 455.89088,188.85635 467.26084,134.3071 489.78313,118.496 C 507.59257,105.99344 523.33732,102.71068 548.62195,106.2282 C 561.31827,107.99448 572.85955,108.76003 574.26921,107.92942 C 575.6789,107.09881 582.97481,109.55291 590.48234,113.38296 C 601.25518,118.87886 605.74396,124.3801 611.77794,139.48188 C 625.12807,172.89452 625.23017,182.13743 612.5846,212.51349 C 603.05976,235.39317 601.89205,241.15901 605.27819,248.59077 C 611.01691,261.18592 610.31174,262.69842 602.1461,255.30861 C 595.21582,249.0368 594.98376,249.05363 594.98376,255.82793 C 594.98376,259.67856 596.99817,264.97096 599.46022,267.58883 C 603.14098,271.50252 602.18614,271.93599 594.08847,270.02742 C 587.91299,268.57189 584.24026,269.17335 584.24026,271.64019 C 584.24026,274.16368 580.31873,274.71281 573.30251,273.17179 L 562.36476,270.76946 L 563.03777,311.38482 C 563.40792,333.72326 564.93321,362.08956 566.42734,374.42102 C 567.92144,386.75249 567.95027,402.13431 566.49141,408.60284 C 560.15296,436.70667 596.15158,571.77503 625.32335,629.34271 C 634.84031,648.12355 636.381,654.60893 631.32561,654.60893 C 622.33684,654.60893 573.35562,520.28123 566.68669,477.34108 C 558.8324,426.7686 558.00411,426.34488 545.68672,466.59757 C 539.65954,486.294 528.83592,524.97062 521.63416,552.54562 C 500.04963,635.19141 491.28099,659.96396 486.40466,652.0739 z M 449.08906,328.61563 C 486.09417,320.48574 526.94155,306.93623 526.94155,302.79113 C 526.94155,299.28035 525.70204,299.3602 514.58409,303.58723 C 509.50069,305.51994 488.84884,308.69584 468.69109,310.64479 C 448.5333,312.59374 423.28135,316.4942 412.57562,319.31247 C 396.44156,323.55975 391.84541,323.6341 385.71685,319.74694 C 381.65026,317.16762 365.43084,312.2503 349.6737,308.81955 C 333.91656,305.38881 314.04176,299.6001 305.50748,295.95577 C 286.94887,288.03082 284.8544,287.79723 290.20938,294.24958 C 292.4551,296.95551 315.61667,306.01862 341.67953,314.38983 C 367.7424,322.76103 391.48384,330.92724 394.43831,332.53696 C 402.93546,337.16656 413.67488,336.39598 449.08906,328.61563 z M 553.96727,258.36615 C 569.03608,253.61613 573.78947,250.12239 578.43371,240.38329 C 586.95242,222.51939 593.53779,179.01621 588.48774,173.96615 C 586.2774,171.75582 573.53969,169.72059 560.18171,169.44342 C 528.50269,168.78607 509.54277,161.19448 498.61254,144.79097 C 487.93221,128.76253 482.48392,131.90747 477.05179,157.23657 C 469.29809,193.39076 475.74334,237.80282 490.7094,251.34692 C 505.2358,264.49315 526.90306,266.8974 553.96727,258.36615 z M 598.56493,212.33459 C 598.56493,211.34977 597.75917,210.544 596.77435,210.544 C 595.78952,210.544 594.98376,211.34977 594.98376,212.33459 C 594.98376,213.31941 595.78952,214.12517 596.77435,214.12517 C 597.75917,214.12517 598.56493,213.31941 598.56493,212.33459 z M 516.19805,155.47438 C 516.19805,154.73073 513.37788,151.91056 509.931,149.20734 C 504.25105,144.75282 504.12439,144.87949 508.5789,150.55943 C 513.25723,156.52475 516.19805,158.42181 516.19805,155.47438 z M 523.46714,142.70125 C 519.70835,135.6779 512.61688,129.58975 512.61688,133.38612 C 512.61688,137.30919 521.52063,149.66413 524.34782,149.66413 C 525.91297,149.66413 525.51664,146.53083 523.46714,142.70125 z M 583.42149,140.48931 C 581.5017,138.5695 532.03759,118.99134 518.88392,114.94497 C 515.43705,113.88464 512.61688,114.81657 512.61688,117.01594 C 512.61688,119.2153 515.51763,121.01478 519.06298,121.01478 C 522.60834,121.01478 527.11635,122.62203 529.08077,124.58645 C 533.26171,128.76741 581.74633,145.76875 583.94184,143.82372 C 584.7625,143.09666 584.52836,141.59618 583.42149,140.48931 z M 595.40655,127.00827 C 590.16333,121.76504 587.82142,120.9639 587.82142,124.41344 C 587.82142,131.58225 599.81064,144.13637 601.58199,138.82236 C 602.35732,136.49642 599.57837,131.18008 595.40655,127.00827 z M 507.20903,120.95637 C 505.97188,118.9546 503.45947,118.24394 501.62591,119.37713 C 496.65869,122.44705 497.58489,124.59595 503.87532,124.59595 C 506.94603,124.59595 508.44618,122.95814 507.20903,120.95637 z M 569.91558,121.39793 C 569.91558,117.04506 560.58434,113.79548 549.03096,114.12489 C 540.01067,114.38209 540.17745,114.6676 552.00974,119.2242 C 567.42588,125.16093 569.91558,125.46317 569.91558,121.39793 z M 250.05921,230.42374 C 229.46988,223.08067 217.0634,211.50648 203.79846,187.26641 C 192.68886,166.96494 192.55494,118.48605 203.55115,97.737185 C 212.93041,80.039364 226.87194,66.821088 246.57243,56.947738 C 272.19445,44.10668 319.98018,47.988964 339.9121,64.530988 C 342.72391,66.864592 347.41471,69.124713 350.33608,69.553479 C 357.52453,70.608519 364.32984,80.535807 369.34922,97.288995 C 372.87698,109.06363 372.29985,116.24946 365.60826,143.86721 C 354.40049,190.12425 338.6874,214.70008 311.3188,228.77782 C 295.75155,236.78524 269.84774,237.48122 250.05921,230.42374 z M 306.9696,222.70998 C 335.69572,209.07855 357.3742,169.57363 361.20536,123.87564 C 363.46671,96.902247 358.03409,78.040757 348.00368,78.040757 C 344.60863,78.040757 338.92221,74.826747 335.36721,70.898517 C 327.18002,61.85177 308.41936,56.599285 284.20234,56.573716 C 235.01831,56.521787 203.04237,91.785018 203.25369,145.8443 C 203.35627,172.08773 211.17615,191.24913 228.48128,207.66058 C 249.61818,227.70592 282.96657,234.10016 306.9696,222.70998 z"
       id="path2458" />
    <g
       id="g2596"
       transform="matrix(0.9999742,-7.1847983e-3,7.3166896e-3,1.0183307,51.73585,56.755401)">
      <g
         id="g2605">
        <g
           id="g2614"
           transform="translate(-150.27314,1.2403006)">
          <path
             sodipodi:nodetypes="cccccccccscccccccccccccccccccccccccsccccccccccccscccccccccccccccccccccccccccccccccczzsccccssszzczzzzzccccscczzzzzczcccccccsccscccccccccccccccccccccccccsccscccccccccccccccccccccccccccc"
             id="path2422"
             d="M 652.85509,221.58745 C 651.31124,221.81174 650.92791,222.69192 649.54645,223.36042 C 648.74131,224.07037 646.69364,226.08572 646.02306,226.92479 C 644.20412,229.04887 643.38533,229.82483 642.19482,231.50259 C 639.51528,235.40471 638.76853,236.57294 636.02344,241.49898 C 634.06722,244.39574 633.32034,246.42035 631.87335,248.31257 C 629.39168,252.601 628.38502,254.98499 626.43102,258.29956 C 625.43905,260.30633 624.67361,262.39687 624.12345,264.56301 C 623.86844,265.97391 623.7565,267.41516 623.89821,268.84564 C 623.96376,270.1729 624.24161,271.45814 624.54579,272.7482 C 624.79017,273.79879 625.11165,274.8308 625.40759,275.86827 C 626.29306,278.61131 627.32532,281.31706 628.36096,284.00759 C 629.81903,287.82372 631.4139,291.58664 632.73971,295.4512 C 633.94761,298.83713 634.9578,302.30871 635.89323,305.77689 C 636.57565,308.5034 637.21059,311.22327 637.53466,314.01754 C 637.62929,315.31228 637.84133,316.64937 637.49475,317.92409 C 635.74742,322.86987 633.90578,327.80502 632.2055,332.76742 C 630.22657,338.42267 628.28839,344.09592 626.36623,349.77022 C 624.13754,356.48026 621.90485,363.17462 619.73255,369.90267 C 618.20598,374.75391 616.68254,379.58876 615.22291,384.46025 C 613.61099,389.72475 612.0238,395.01885 610.47068,400.3005 C 608.86466,405.85401 607.27607,411.41616 605.72333,416.98448 C 604.4278,421.55954 603.23132,426.16659 601.99041,430.7563 C 600.51128,436.35363 599.03803,441.95057 597.61878,447.56311 C 596.26433,452.79766 594.97462,458.02486 593.67832,463.27367 C 591.73774,471.41107 589.79442,479.5626 587.9133,487.71367 C 586.09501,495.62325 584.36376,503.56346 582.64449,511.49454 C 581.4142,517.45452 580.16419,523.40608 579.06042,529.39057 C 578.5883,531.91489 578.15002,534.42778 577.72918,536.96089 C 577.02005,541.4517 576.29286,545.96856 575.93246,550.50276 C 575.73423,552.62161 575.63225,554.75201 575.68808,556.87928 C 575.76325,558.31673 575.89709,559.78678 576.55621,561.09308 C 576.95082,561.91803 577.97806,562.10161 578.81178,562.0488 C 579.7894,562.00663 580.74663,561.76939 581.68366,561.50094 C 582.64541,561.1542 583.59482,560.79678 584.48924,560.29719 C 585.78222,559.59549 587.17114,559.07795 588.60532,558.74211 C 589.71034,558.47776 590.87502,558.36294 592.01007,558.47241 C 592.93241,558.54098 593.7158,559.16162 594.66953,559.01955 C 596.54439,558.96362 598.36371,558.47021 600.16365,557.98776 C 601.91705,557.52727 603.61567,556.87443 605.30987,556.23922 C 607.09856,555.5475 608.86527,554.78391 610.60945,553.98978 C 612.68403,553.16131 614.71134,552.24957 616.87741,551.67225 C 617.84165,551.38138 618.84134,551.21855 619.84304,551.12384 C 620.86841,551.1079 621.95645,551.30571 622.81625,551.88791 C 624.17713,552.67756 624.79292,554.21518 625.9916,555.1821 C 626.72508,555.8314 627.72671,556.23557 628.71555,556.07261 C 630.20166,555.86334 631.4376,554.95283 632.67339,554.17469 C 633.64984,553.51718 634.60134,552.82616 635.63107,552.2513 C 636.66467,551.7245 637.79072,551.28462 638.96916,551.26324 C 640.07649,551.23791 641.11705,551.84293 641.78993,552.68444 C 642.37515,553.52331 643.18572,554.20198 644.17554,554.51444 C 645.34292,554.90384 646.64259,554.95995 647.83246,554.61829 C 648.89691,554.41744 649.76302,553.71134 650.7943,553.41364 C 652.34334,552.88866 653.91931,552.48349 655.53752,552.22993 C 658.28292,551.72411 661.05864,551.3733 663.8441,551.18188 C 668.16665,550.80922 672.50485,550.70414 676.84118,550.63796 C 679.41595,550.63659 681.98736,550.71122 684.56088,550.78083 C 689.36826,550.98874 694.17938,551.24642 698.94287,551.94768 C 701.34228,552.32385 703.74439,552.71858 706.07642,553.40645 C 707.24568,553.76526 708.42665,554.1627 709.45968,554.8244 C 711.07144,555.77944 712.75059,556.58672 714.44335,557.38937 C 716.05476,558.08702 717.70149,558.7487 719.39161,559.23579 C 720.18519,559.40377 721.38988,559.68806 721.7635,558.69082 C 722.41838,557.46 722.41813,556.03688 722.5841,554.68601 C 722.72644,553.22069 722.72694,551.74955 722.71487,550.27892 C 722.70707,547.17172 722.49972,544.09855 722.2862,540.99999 C 721.97418,536.98217 721.57689,532.94529 721.09147,528.9442 C 720.45684,523.49783 719.71874,518.07506 718.96592,512.64372 C 718.35111,508.34929 717.63184,504.06968 716.98524,499.77996 C 715.84685,492.7161 714.59371,485.65632 713.33153,478.61323 C 712.14432,472.03052 710.84478,465.48086 709.5613,458.91595 C 708.10329,451.54935 706.56614,444.20467 705.05861,436.84787 C 704.27221,433.10819 703.50863,429.36716 702.65002,425.64286 C 701.61156,421.01215 700.54127,416.36542 699.4134,411.75509 C 698.37729,407.65352 697.29286,403.57576 696.18619,399.4923 C 694.95875,395.2803 693.72771,391.07897 692.42574,386.88883 C 691.47431,383.84769 690.51889,380.79975 689.49802,377.78061 C 687.85083,372.82709 686.22246,367.86476 684.50583,362.93423 C 682.1466,356.10053 679.71466,349.29874 677.3249,342.47541 C 673.99717,333.05538 670.67666,323.64016 667.34883,314.22013 C 667.46977,303.90342 667.58003,293.56552 667.70098,283.24882 C 667.4357,278.53427 667.22399,273.81595 667.08787,269.09588 C 667.02323,267.0936 666.91005,265.09875 666.83443,263.09725 C 666.70257,261.14074 665.53916,255.26536 664.96146,251.1082 C 664.38375,246.95103 664.4038,243.97373 662.93292,239.01287 C 661.4276,233.93587 660.91308,231.42549 659.78631,228.65345 C 659.11666,227.00598 658.42049,225.89501 657.78545,224.20381 C 657.39946,223.28517 656.01519,222.95743 655.35738,222.19291 L 652.85509,221.58745 z M 644.42198,238.44312 C 646.12874,236.5513 647.62679,234.79733 649.73756,234.43628 C 653.41743,233.80683 653.36809,234.85528 654.7397,235.806 C 656.34548,236.91903 657.68904,240.00157 658.67494,242.26147 C 659.48446,244.11707 659.60109,247.3475 659.8108,250.093 C 660.02016,252.83367 660.36515,254.57481 660.25321,256.01911 C 660.14129,257.46341 660.32103,259.01496 660.07636,260.17646 C 659.39797,262.51985 659.49207,262.80507 658.02906,263.76105 C 656.59955,264.69514 656.26896,264.7482 654.41528,265.49162 C 652.56159,266.23504 652.3124,266.22368 649.50118,266.68748 C 646.59485,267.16697 645.83126,267.08769 643.25892,266.68895 C 640.7819,266.30499 639.43765,266.34272 638.08689,265.35982 C 636.73613,264.37692 635.61526,263.97046 634.85049,262.7573 C 634.28737,261.99253 634.09139,260.38628 634.23883,259.44194 C 634.53354,257.78785 635.26354,254.73455 636.04686,253.25989 C 637.3948,249.10136 638.91367,247.03579 640.7195,243.95782 C 642.99235,239.96223 642.23532,240.86687 644.42198,238.44312 z M 632.58845,269.29539 C 632.77704,269.2784 632.99215,269.28919 633.18238,269.3232 C 634.3598,269.44738 635.03102,269.72065 636.56292,270.27243 C 638.09481,270.82421 639.89743,271.64617 641.25029,272.21029 C 642.60315,272.77441 645.19189,273.07207 646.91104,272.81062 C 648.63019,272.54917 651.2141,272.3471 653.31681,271.77773 C 655.41952,271.20835 657.03932,271.25475 658.26617,270.63019 C 659.55059,269.97632 660.06269,270.81516 661.19261,271.51783 C 663.16734,273.70917 661.97705,274.47033 662.36848,280.78916 C 662.75991,287.10799 662.03045,294.19554 661.61282,303.07735 C 661.48729,305.74646 662.28509,312.19356 662.4386,314.86085 C 662.53217,316.08599 663.41845,318.56732 663.66213,319.77279 C 664.02504,321.92798 664.64593,324.02062 665.29254,326.10722 C 666.10407,328.74323 667.06983,331.3283 668.05643,333.90387 C 671.02654,341.72606 673.91326,349.59011 676.78647,357.44753 C 678.79605,363.09187 680.77056,368.74104 682.69718,374.41363 C 683.76514,377.49796 684.78472,380.60122 685.78224,383.70845 C 686.72559,386.64122 687.6812,389.59073 688.58334,392.53615 C 689.74938,396.46228 690.93703,400.35849 692.05766,404.29751 C 693.09047,408.07932 694.12009,411.88128 695.06107,415.68658 C 695.79982,418.67863 696.48995,421.65694 697.11308,424.67486 C 697.69146,427.15552 698.16912,429.6873 698.59411,432.19768 C 699.38687,436.67089 700.15902,441.12273 700.9841,445.59033 C 702.23533,452.41839 703.44461,459.25798 704.79009,466.06866 C 706.5244,474.87119 708.28891,483.66314 710.13021,492.44448 C 711.64758,500.26583 713.11548,508.09244 714.42247,515.9513 C 715.25392,520.89025 716.0821,525.8465 716.7272,530.81322 C 717.54584,537.18287 718.31598,543.55306 719.11901,549.92471 C 714.8922,548.98291 710.67845,548.00869 706.44616,547.0917 C 704.82951,546.75748 703.20317,546.43259 701.566,546.21365 C 698.78556,545.78863 695.98802,545.41347 693.18483,545.16836 C 690.50294,544.91711 687.80999,544.77116 685.1192,544.65249 C 683.14651,544.57381 681.18677,544.55245 679.21233,544.56165 C 675.84795,544.60299 672.47503,544.7298 669.12091,544.99502 C 667.10367,545.22016 665.09548,545.43765 663.09411,545.77988 C 661.02545,546.0607 658.9769,546.53779 656.94483,547.00296 C 654.87731,547.404 652.80728,547.72347 650.69926,547.78909 C 648.95512,547.87482 647.2012,547.79991 645.4788,547.50678 C 644.43162,547.32176 643.40619,547.04076 642.47306,546.52415 C 641.62007,546.01863 640.79368,545.43139 639.80909,545.19577 C 638.85122,544.90231 637.82389,544.92148 636.83948,545.0567 C 635.81651,545.27508 634.85527,545.71397 633.9714,546.2608 C 632.74416,547.09425 631.72592,548.20489 630.42431,548.93761 C 629.5719,549.45374 628.54671,549.79421 627.55243,549.48548 C 626.5226,549.22244 625.82901,548.32658 625.13521,547.59318 C 624.45162,546.78094 623.89348,545.87635 623.05882,545.19889 C 622.36418,544.62606 621.41964,544.11622 620.49167,544.40123 C 619.50015,544.64001 618.94994,545.55719 618.31487,546.25759 C 617.63035,547.10131 616.59363,547.55741 615.57413,547.86722 C 614.71276,548.11952 613.81618,548.2163 612.91973,548.19508 C 611.28492,548.19735 609.77542,547.31393 608.13368,547.37899 C 606.84797,547.37937 605.54297,547.57038 604.38808,548.15066 C 603.43864,548.56315 602.81411,549.39202 602.14951,550.1324 C 601.35941,550.81432 600.39981,551.24976 599.37589,551.46095 C 598.44464,551.72772 597.45886,551.66996 596.50184,551.63383 C 595.52162,551.52311 594.58752,551.17987 593.62309,550.99421 C 592.62106,550.91145 591.60066,550.93315 590.62423,551.19906 C 589.20279,551.51568 587.87413,552.19313 586.79175,553.15875 C 586.04763,553.83211 585.58742,554.7534 584.83605,555.4201 C 584.32511,555.94495 583.42733,556.70575 582.68416,556.18256 C 581.94593,555.54791 581.88941,554.45667 581.73151,553.56302 C 581.58233,551.94078 581.60687,550.31361 581.70332,548.6881 C 581.77508,546.81735 581.99036,544.95413 582.17095,543.09156 C 582.60696,539.68254 583.03598,536.27976 583.64327,532.89538 C 584.45638,527.8364 585.38478,522.81447 586.36843,517.7856 C 587.33245,512.67281 588.49452,507.57802 589.56126,502.48564 C 590.77937,497.01478 592.00406,491.54708 593.279,486.08886 C 594.5604,480.52997 595.9007,474.97716 597.27654,469.44046 C 600.21684,457.86909 603.2454,446.34367 606.38901,434.82468 C 608.78217,426.12158 611.25974,417.42123 613.7696,408.75032 C 615.89682,401.45975 618.04147,394.19259 620.26853,386.93111 C 621.96873,381.32668 623.71557,375.71442 625.54657,370.15031 C 631.68209,351.40874 637.80245,332.68995 643.94062,313.94924 C 640.42713,302.86472 636.91657,291.78204 633.4044,280.69711 C 632.70214,278.26721 631.99013,275.83707 631.45572,273.36451 C 631.27962,272.33922 631.13274,271.26633 631.37515,270.23992 C 631.53719,269.63229 632.02268,269.34637 632.58845,269.29539 z"
             style="fill:#000000" />
          <path
             sodipodi:nodetypes="csssscc"
             transform="matrix(0.9999742,7.0552845e-3,-7.1847983e-3,0.9819486,6.6717644,-55.68669)"
             id="path2610"
             d="M 635.78684,323.32843 C 632.75544,322.08991 631.10425,321.29858 630.32701,319.43279 C 628.9882,316.21895 630.58216,311.52115 634.63724,303.45884 C 642.21748,288.3878 649.10668,286.83422 653.79465,297.25283 C 655.34246,300.69271 656.72395,314.77121 655.22629,318.57772 C 653.50785,322.94539 641.90387,324.78403 639.44895,323.71904 L 635.78684,323.32843 z"
             style="fill:#ffffff;fill-opacity:1" />
          <path
             sodipodi:nodetypes="cscccscccsssssssssssssssssscc"
             transform="matrix(0.9999742,7.0552845e-3,-7.1847983e-3,0.9819486,6.6717644,-55.68669)"
             id="path2612"
             d="M 579.92825,616.17151 C 578.36794,607.85433 586.64153,563.40419 598.79708,514.79816 C 609.24528,473.0194 616.97403,446.03607 633.38208,394.05251 L 639.97958,371.81506 L 634.56841,354.89235 C 627.89903,333.82686 625.52513,328.34622 627.90302,326.5542 C 628.47526,326.12295 630.91802,327.07712 635.33911,328.82589 L 640.93035,330.20802 L 648.36699,329.11706 C 653.82809,327.54192 655.63632,325.98243 657.66208,329.71486 C 657.97999,330.30062 658.32254,338.81492 658.12895,347.62609 C 657.65308,369.28573 657.4127,374.41277 667.97075,403.13061 C 683.52067,445.42619 690.21067,467.56212 695.17528,493.14542 C 696.96809,502.3837 700.36755,519.61026 702.72981,531.42667 C 705.092,543.24308 708.23356,559.38788 709.71098,567.30401 C 712.42302,581.83525 716.86572,610.80887 716.38728,611.26587 C 716.24486,611.40191 711.39488,610.2921 706.31536,609.15259 C 692.95016,606.15431 671.06426,605.59892 658.527,607.90453 C 647.89926,609.85897 644.55544,609.94863 640.80075,608.3798 C 636.75801,606.69066 633.487,606.93187 630.20653,609.16105 C 626.46333,611.70462 624.83716,611.62434 622.29434,608.77042 C 619.74887,605.91358 618.40591,605.8405 615.37161,608.39372 C 613.25145,610.17765 612.44834,610.38602 608.22755,609.8904 C 603.89244,609.38135 601.77692,610.39753 600.31604,612.06045 C 598.90564,613.66591 596.55151,614.49375 592.15827,614.35853 C 587.15517,614.20455 585.61833,614.22917 583.82294,616.64762 C 583.59045,616.96079 582.20364,618.17565 581.57497,618.41691 C 580.75536,618.73144 580.28934,618.09606 579.92825,616.17151 L 579.92825,616.17151 z"
             style="fill:#ffffff;fill-opacity:1" />
        </g>
      </g>
    </g>
    <g
       id="g2524"
       transform="matrix(1.0198108,0,0,1.0084713,-323.30867,3.4438705)" />
    <path
       style="fill:#000000"
       d="M 243.53502,243.47238 C 233.93844,235.7049 216.42331,229.97851 204.25821,230.63118 C 197.09019,231.01576 196.64076,229.97032 199.25093,218.98337 C 202.88597,203.68232 207.10863,202.44209 218.3242,213.38128 C 225.17415,220.06248 231.84442,222.89943 246.66033,225.43301 L 266.03759,228.74662 L 263.13632,240.95895 C 259.96602,254.30364 257.33389,254.64115 243.53502,243.47238 z"
       id="path2463"
       inkscape:transform-center-x="13.858421"
       inkscape:transform-center-y="-0.60426675" />
    <path
       style="fill:#ffffff;fill-opacity:1"
       d="M 265.81592,226.02336 C 236.17671,219.99685 210.5803,193.26681 205.4853,163.02072 C 203.39092,150.58749 204.53624,128.17478 207.91561,115.46577 C 217.58405,79.105361 246.84217,57.426736 286.11233,57.526627 C 307.47171,57.580971 323.94671,62.414017 335.78358,72.098127 C 339.40186,75.058314 344.77046,78.10183 347.71358,78.861486 C 351.69967,79.890299 353.89217,81.819658 356.30733,86.423783 C 359.19483,91.928064 359.53311,95.171252 359.39702,116.04239 C 359.26233,136.69481 358.74436,141.15094 355.03811,153.54239 C 344.33436,189.32836 326.7228,213.03339 303.41749,223.02319 C 294.42936,226.87596 276.89108,228.27531 265.81577,226.02336 L 265.81592,226.02336 z"
       id="path2601" />
    <path
       style="fill:#ffffff;fill-opacity:1"
       d="M 509.28402,260.6898 C 494.65409,256.75641 485.31018,247.23175 480.11492,230.95648 C 471.5923,204.25748 473.51466,155.59802 483.74872,138.97736 C 487.45001,132.9663 488.23497,133.41969 502.73541,149.94398 C 514.02725,162.81187 527.32645,167.68602 556.51418,169.65392 C 587.25947,171.72684 589.8485,172.77523 589.8485,183.15214 C 589.8485,190.54214 586.92079,210.11456 584.21639,220.80404 C 578.99984,241.4232 574.45493,248.82164 563.99933,253.71441 C 547.31484,261.52201 523.61648,264.54321 509.28403,260.6898 L 509.28402,260.6898 z"
       id="path2619" />
    <path
       style="fill:#ffffff;fill-opacity:1"
       d="M 513.75462,155.8976 C 512.21686,154.79649 505.53928,146.85299 505.87184,146.52043 C 506.21758,146.17468 513.7298,152.42487 515.21553,154.29442 C 516.73638,156.20816 515.73027,157.31226 513.75462,155.8976 L 513.75462,155.8976 z"
       id="path2621" />
    <path
       style="fill:#ffffff;fill-opacity:1"
       d="M 522.76663,148.65881 C 520.39536,146.94106 516.57441,141.95631 514.3395,137.66488 C 512.81335,134.7344 512.44149,133.29534 513.05253,132.68431 C 514.97805,130.75878 523.74292,141.31688 524.91693,146.97609 C 525.45245,149.55754 524.75776,150.10117 522.76664,148.65881 L 522.76663,148.65881 z"
       id="path2623" />
    <path
       style="fill:#ffffff;fill-opacity:1"
       d="M 501.75129,124.30538 C 497.94505,123.88114 497.65911,122.29292 500.9775,120.00746 C 502.31328,119.08747 502.60338,118.9961 503.818,119.11281 C 505.35565,119.26056 506.39415,119.91147 507.07589,121.15477 C 508.33747,123.45554 506.08489,124.7884 501.75129,124.30538 L 501.75129,124.30538 z"
       id="path2625" />
    <path
       style="fill:#ffffff;fill-opacity:1"
       d="M 581.90407,143.71615 C 578.9236,143.29871 569.57401,140.55426 560.49752,137.43254 C 545.03215,132.11346 533.41904,127.36393 529.97592,124.94982 C 526.12257,122.24807 523.84288,121.43734 518.17118,120.75166 C 516.70191,120.57404 515.64002,120.26245 514.77365,119.75472 C 512.41558,118.3728 512.08748,116.12688 514.0966,115.12013 C 516.10677,114.11285 518.0051,114.57144 529.83781,118.92279 C 550.66818,126.58294 580.04099,138.48219 582.95832,140.44249 C 584.00463,141.14557 584.56186,142.79435 583.98718,143.48679 C 583.632,143.91474 583.45848,143.93385 581.90407,143.71614 L 581.90407,143.71615 z"
       id="path2627" />
    <path
       style="fill:#ffffff;fill-opacity:1"
       d="M 564.2264,123.33847 C 560.39641,122.31721 546.15088,116.95206 543.85285,115.6654 C 542.02535,114.64218 542.84356,114.49714 550.36127,114.51168 C 556.86538,114.52426 557.52096,114.5722 560.37419,115.24391 C 566.88707,116.77718 570.1831,119.23773 569.7013,122.20677 C 569.38415,124.1611 568.21657,124.40245 564.2264,123.33847 L 564.2264,123.33847 z"
       id="path2629" />
    <path
       style="fill:#ffffff;fill-opacity:1"
       d="M 598.47689,139.53338 C 597.86922,139.25701 596.59781,138.35859 595.65154,137.53689 C 591.5323,133.95991 588.15386,128.23798 588.06024,124.67985 C 587.97026,121.25991 589.81913,121.83779 594.76785,126.77641 C 598.24953,130.25096 600.11216,132.92823 601.09439,135.86989 C 601.75951,137.86183 601.65326,138.99461 600.74137,139.63332 C 599.9958,140.15554 599.8287,140.14816 598.47689,139.53337 L 598.47689,139.53338 z"
       id="path2631" />
    <path
       style="fill:#ffffff;fill-opacity:1"
       d="M 595.70219,213.39525 C 595.18021,212.87325 595.03884,212.51815 595.17306,212.06608 C 595.74211,210.14944 598.33878,210.42486 598.33878,212.40185 C 598.33878,213.23491 598.00738,213.61933 597.03137,213.91846 C 596.5754,214.05821 596.22868,213.92173 595.7022,213.39524 L 595.70219,213.39525 z"
       id="path2633" />
  </g>
</svg>
